<?xml version="1.0" encoding="iso-8859-1"?>
<!-- Generator: Adobe Illustrator 16.0.0, SVG Export Plug-In . SVG Version: 6.00 Build 0)  -->
<!DOCTYPE svg PUBLIC "-//W3C//DTD SVG 1.1//EN" "http://www.w3.org/Graphics/SVG/1.1/DTD/svg11.dtd">
<svg version="1.1" id="Capa_1" xmlns="http://www.w3.org/2000/svg" xmlns:xlink="http://www.w3.org/1999/xlink" x="0px" y="0px"
	 width="32.938px" height="32.937px" viewBox="0 0 32.938 32.937" style="enable-background:new 0 0 32.938 32.937;"
	 xml:space="preserve">
<g>
	<g>
		<path d="M32.827,20.017L29.784,8.662c-0.461-1.722-2.236-2.746-3.959-2.286l-1.456,0.39l0.912,1.581l1-0.268
			c0.784-0.211,1.59,0.256,1.8,1.038l3.043,11.355c0.209,0.781-0.256,1.588-1.038,1.799L19.343,25.15l-5.901,3.406l17.102-4.582
			C32.264,23.513,33.289,21.739,32.827,20.017z"/>
		<path d="M28.197,15.241L22.319,5.06c-0.891-1.544-2.871-2.073-4.416-1.183L1.616,13.281c-1.544,0.892-2.075,2.871-1.184,4.415
			L6.31,27.878c0.891,1.543,2.871,2.072,4.415,1.182l16.289-9.403C28.558,18.765,29.089,16.785,28.197,15.241z M26.132,18.13
			L9.844,27.533c-0.702,0.404-1.603,0.163-2.007-0.537L1.959,16.815c-0.405-0.7-0.165-1.602,0.538-2.007l16.287-9.403
			C19.486,5,20.388,5.242,20.791,5.942l5.879,10.181C27.074,16.823,26.835,17.724,26.132,18.13z"/>
		<path d="M10.109,15.76c0.71,0.41,2.928,0.916,3.339,0.203c0.408-0.707-1.141-2.371-1.852-2.782s-1.621-0.167-2.031,0.542
			C9.155,14.437,9.397,15.349,10.109,15.76z"/>
		<path d="M18.521,17.177c-0.71-0.408-2.928-0.916-3.339-0.203c-0.408,0.707,1.142,2.373,1.851,2.781
			c0.712,0.412,1.623,0.168,2.032-0.541C19.476,18.501,19.232,17.589,18.521,17.177z"/>
		<path d="M13.442,16.966c-0.408-0.707-2.625-0.197-3.333,0.211c-0.713,0.412-0.956,1.322-0.548,2.031
			c0.411,0.713,1.323,0.959,2.036,0.549C12.305,19.345,13.853,17.681,13.442,16.966z"/>
		<path d="M17.032,13.181c-0.711,0.409-2.259,2.075-1.848,2.79c0.409,0.707,2.625,0.197,3.336-0.211
			c0.71-0.412,0.955-1.322,0.547-2.028C18.656,13.016,17.74,12.77,17.032,13.181z"/>
		<path d="M14.31,17.472c-0.817,0-1.483,2.172-1.485,2.992c0.001,0.82,0.666,1.489,1.485,1.487c0.822,0.002,1.491-0.666,1.494-1.487
			C15.801,19.644,15.135,17.472,14.31,17.472z"/>
		<path d="M14.318,15.465c0.818-0.001,1.484-2.175,1.486-2.994c-0.002-0.822-0.67-1.487-1.486-1.488
			c-0.824-0.002-1.494,0.667-1.492,1.488C12.825,13.29,13.49,15.465,14.318,15.465z"/>
		<circle cx="14.314" cy="16.469" r="0.596"/>
	</g>
</g>
<g>
</g>
<g>
</g>
<g>
</g>
<g>
</g>
<g>
</g>
<g>
</g>
<g>
</g>
<g>
</g>
<g>
</g>
<g>
</g>
<g>
</g>
<g>
</g>
<g>
</g>
<g>
</g>
<g>
</g>
</svg>
